<svg width="51" height="61" viewBox="0 0 51 61" fill="none" xmlns="http://www.w3.org/2000/svg">
<path fill-rule="evenodd" clip-rule="evenodd" d="M38.8476 10C46.2187 10 51 14.7812 51 22.1524V48.8476C51 56.2187 46.2187 61 38.8476 61H12.1524C4.78125 61 0 56.2187 0 48.8476V22.1524C0 14.7812 4.78125 10 12.1524 10H38.8476Z" fill="#352B36"/>
<path fill-rule="evenodd" clip-rule="evenodd" d="M25.5 52.925C35.1235 52.925 42.9249 45.1236 42.9249 35.5C42.9249 25.8764 35.1235 18.075 25.5 18.075C15.8764 18.075 8.07495 25.8764 8.07495 35.5C8.07495 45.1236 15.8764 52.925 25.5 52.925Z" fill="#5E3754"/>
<mask id="mask0" mask-type="alpha" maskUnits="userSpaceOnUse" x="8" y="18" width="35" height="35">
<path fill-rule="evenodd" clip-rule="evenodd" d="M25.5 52.925C35.1235 52.925 42.9249 45.1236 42.9249 35.5C42.9249 25.8764 35.1235 18.075 25.5 18.075C15.8764 18.075 8.07495 25.8764 8.07495 35.5C8.07495 45.1236 15.8764 52.925 25.5 52.925Z" fill="white"/>
</mask>
<g mask="url(#mask0)">
<path fill-rule="evenodd" clip-rule="evenodd" d="M22.1 53.5625L45.6875 30.1875L40.5875 25.3L13.6 52.2875L22.1 53.5625Z" fill="#AA5262"/>
<path fill-rule="evenodd" clip-rule="evenodd" d="M13.6 52.2875L40.5875 25.3L35.9125 20.2L8.92505 47.1875L13.6 52.2875Z" fill="#E77E5F"/>
<path fill-rule="evenodd" clip-rule="evenodd" d="M8.92498 47.1875L35.9125 20.2L28.9 17.225L5.09998 41.025L8.92498 47.1875Z" fill="#FCA965"/>
<path fill-rule="evenodd" clip-rule="evenodd" d="M5.09998 41.025L28.9 17.225L16.15 18.5L5.09998 30.6125V41.025Z" fill="#FECB7A"/>
</g>
<g filter="url(#filter0_d)">
<path d="M12.0136 15.3668C12.0136 15.2817 12.018 15.1918 12.018 15.1113C12.0225 15.0547 12.0224 15.0036 12.0269 14.947C12.0358 14.7153 12.0535 14.4837 12.0716 14.2525V14.2009C12.0849 14.0979 12.0938 13.9902 12.1027 13.8871C12.1071 13.8509 12.1071 13.8203 12.1116 13.7841C12.1297 13.6299 12.1486 13.4758 12.1696 13.3212C12.1693 13.3185 12.1696 13.3156 12.1703 13.313C12.1711 13.3103 12.1724 13.3079 12.1741 13.3059C12.2055 13.0504 12.2458 12.7949 12.2905 12.5445C12.2922 12.5425 12.2935 12.5401 12.2943 12.5375C12.295 12.5348 12.2953 12.532 12.295 12.5292C12.3127 12.4159 12.3349 12.3078 12.3575 12.1949C12.42 11.8913 12.4869 11.5877 12.5627 11.2897C12.6163 11.0836 12.6699 10.8779 12.7324 10.6722C12.7727 10.8111 12.8131 10.9499 12.8578 11.0836C12.8889 11.1815 12.9203 11.279 12.9513 11.3719V11.377C12.9561 11.3971 12.9638 11.4163 12.9739 11.4336C12.9828 11.454 12.9872 11.4762 12.9961 11.4953C13.0408 11.6342 13.09 11.7679 13.144 11.9016C13.1621 11.9578 13.183 12.0128 13.2065 12.0664V12.0715C13.2122 12.0878 13.2196 12.1033 13.2287 12.1174L13.2331 12.1226C13.2344 12.143 13.2406 12.1627 13.2512 12.1792C13.3005 12.3078 13.3542 12.4364 13.4121 12.565C13.4236 12.5969 13.437 12.6279 13.452 12.6578C13.4628 12.6845 13.4751 12.7102 13.489 12.7349C13.516 12.8068 13.5471 12.8737 13.5785 12.9405C13.6184 13.0232 13.6586 13.1055 13.699 13.1875C13.7165 13.2298 13.7359 13.271 13.7571 13.311C13.7527 13.3161 13.7571 13.3161 13.7571 13.3161C13.7749 13.3587 13.7974 13.3983 13.8196 13.4396C13.8936 13.6044 13.9805 13.7636 14.0696 13.9233C14.1724 14.1186 14.2796 14.309 14.3913 14.4943C14.4123 14.5237 14.4317 14.5546 14.4494 14.5867C14.5521 14.7571 14.6594 14.9274 14.7666 15.0909C14.8606 15.2348 14.9585 15.3736 15.0569 15.5124C15.1061 15.5848 15.1553 15.6568 15.2089 15.7254C15.2399 15.7713 15.2758 15.8178 15.3117 15.8642C15.3919 15.9774 15.4814 16.0903 15.5705 16.2048C15.5858 16.2265 15.6022 16.2472 15.6197 16.2666C15.7451 16.4262 15.8745 16.5804 16.0084 16.735L25.6708 27.8665L35.3374 16.735C35.5296 16.514 35.7127 16.2874 35.892 16.0613C35.9948 15.9276 36.0976 15.7888 36.196 15.65C36.233 15.6036 36.2629 15.5572 36.2988 15.5107C36.4193 15.3404 36.5355 15.1663 36.6471 14.9913C36.6786 14.9397 36.7096 14.8937 36.7411 14.8422C36.7991 14.7549 36.852 14.6621 36.9108 14.5697C36.9555 14.4977 36.9955 14.4253 37.0358 14.3534C37.0581 14.3204 37.0789 14.2862 37.0983 14.2508C37.2144 14.0451 37.3305 13.8339 37.4377 13.6231C37.4914 13.5201 37.5405 13.4226 37.5897 13.3195C37.5974 13.2989 37.6079 13.2797 37.6208 13.2629C37.67 13.1603 37.7147 13.0521 37.7639 12.9491C37.8264 12.8154 37.8844 12.6816 37.9425 12.5479C37.9541 12.5254 37.9632 12.5012 37.9695 12.476C37.986 12.4409 38.001 12.4047 38.0142 12.3678C38.0249 12.3484 38.0338 12.3277 38.0409 12.3061C38.0586 12.2635 38.0778 12.229 38.09 12.1932C38.1303 12.0953 38.164 12.0029 38.1973 11.905C38.233 11.8232 38.2644 11.739 38.2912 11.6529C38.3045 11.6222 38.3134 11.5963 38.3282 11.5656C38.3282 11.5605 38.3326 11.5554 38.3326 11.5503C38.4354 11.2569 38.5293 10.9686 38.6096 10.6756C38.6721 10.8813 38.7257 11.087 38.7793 11.2931C38.8163 11.4319 38.8511 11.5707 38.8821 11.7095C38.9132 11.8483 38.949 11.9974 38.976 12.1468C39.0115 12.3112 39.0427 12.4757 39.0696 12.6403C39.101 12.8051 39.128 12.9699 39.1502 13.1394C39.1724 13.3089 39.1994 13.4741 39.2171 13.6436C39.2349 13.7824 39.2486 13.9267 39.2619 14.0655C39.2663 14.1171 39.2708 14.1631 39.2752 14.2146C39.2885 14.3585 39.2978 14.508 39.3066 14.6519V14.657C39.3199 14.8111 39.3244 14.9606 39.3288 15.1147C39.3377 15.3276 39.3421 15.5316 39.3421 15.7424C39.3421 16.0405 39.3332 16.3441 39.3155 16.6426C39.134 20.5017 37.7176 24.1467 35.3396 26.874L25.6864 37.9847L25.673 38L16.0106 26.874C15.3014 26.0606 14.6736 25.1582 14.1391 24.1837C14.1391 24.1782 14.1347 24.1735 14.1347 24.1679C12.8844 21.911 12.1612 19.3207 12.035 16.6477C12.0088 16.2155 11.9999 15.7939 12.0136 15.3668Z" fill="url(#paint0_linear)"/>
<path d="M16.1995 4.39972C18.4353 1.91967 21.3385 0.391314 24.4301 0.066807C27.5218 -0.2577 30.6171 0.64104 33.2055 2.61474C33.2232 2.62496 33.2369 2.63518 33.2458 2.64072C33.9232 3.16026 34.5586 3.74898 35.1443 4.39972L34.7745 4.82553L25.6708 15.3035L16.5178 4.76507V4.75996L16.4868 4.72381L16.1995 4.39972Z" fill="url(#paint1_linear)"/>
<path d="M12.7327 10.6705C13.1845 9.12283 13.8449 7.66651 14.6896 6.35493C14.7698 6.23144 14.8504 6.10796 14.9395 5.98447C15.0201 5.8661 15.1048 5.74772 15.1899 5.62934C15.364 5.39813 15.5382 5.16649 15.7257 4.93995C15.8152 4.82711 15.9106 4.71896 16.0071 4.60569C16.0653 4.53203 16.1281 4.46326 16.195 4.40002H16.1994L16.4852 4.72407L16.5163 4.76026V4.76537L25.6696 15.3051L34.7733 4.82711L35.1431 4.4013C35.2102 4.4659 35.2742 4.53458 35.335 4.60697C36.819 6.30894 37.9385 8.38537 38.605 10.6718C38.5247 10.9648 38.4308 11.253 38.328 11.5464C38.328 11.5515 38.3236 11.5566 38.3236 11.5618C38.3103 11.5924 38.3014 11.6184 38.2866 11.6491C38.2598 11.7352 38.2284 11.8194 38.1927 11.9011C38.1212 12.0913 38.0453 12.2817 37.9649 12.4721C37.9024 12.6314 37.8306 12.7911 37.7593 12.9452C37.6565 13.1718 37.5492 13.3979 37.4331 13.6193C37.3259 13.8301 37.2113 14.0413 37.0937 14.2469C37.0848 14.2571 37.0804 14.2725 37.0715 14.2827C36.9642 14.473 36.8496 14.6634 36.7276 14.8537C36.7006 14.9001 36.674 14.9414 36.6425 14.9874C36.522 15.1726 36.397 15.3579 36.2727 15.538L36.2639 15.5482C36.1433 15.7185 36.0182 15.8889 35.8885 16.0592C35.7099 16.2853 35.5269 16.5118 35.3339 16.7328L25.6673 27.8644L16.0049 16.7328C14.8617 15.4182 13.93 13.8805 13.2533 12.1911C13.2399 12.1695 13.2307 12.1448 13.2263 12.1187C13.2173 12.1045 13.2098 12.0891 13.2041 12.0727V12.0676C13.1806 12.0141 13.1598 11.9591 13.1416 11.9029C13.088 11.7692 13.0388 11.6354 12.9937 11.4966C12.9763 11.4585 12.9614 11.4189 12.949 11.3782V11.3731C12.9179 11.2803 12.8865 11.1828 12.8554 11.0848C12.8133 10.9482 12.773 10.8093 12.7327 10.6705Z" fill="url(#paint2_linear)"/>
<g style="mix-blend-mode:multiply" opacity="0.06">
<g style="mix-blend-mode:multiply" opacity="0.06">
<path d="M25.6694 15.3046L35.1455 4.39703C35.211 4.46176 35.2764 4.53717 35.3371 4.607C35.8124 5.15106 36.2513 5.73566 36.6502 6.35581L25.6694 15.3046Z" fill="black"/>
</g>
</g>
<g style="mix-blend-mode:multiply" opacity="0.06">
<g style="mix-blend-mode:multiply" opacity="0.06">
<path d="M25.6694 27.8614L35.336 16.7298C35.5283 16.5088 35.7113 16.2823 35.8906 16.0562C35.9934 15.9174 36.0962 15.7837 36.1946 15.6449C36.2316 15.5984 36.2615 15.552 36.2974 15.5056C36.418 15.3353 36.5341 15.1611 36.6457 14.9861C36.6772 14.9346 36.7082 14.8886 36.7397 14.8371C36.7977 14.7498 36.8558 14.657 36.9094 14.5646C36.9541 14.4926 36.9941 14.4202 37.0344 14.3483C37.0567 14.3153 37.0776 14.281 37.0969 14.2456C37.213 14.04 37.3291 13.8288 37.4363 13.618C37.49 13.5201 37.5391 13.4174 37.5883 13.3144C37.596 13.2937 37.6065 13.2746 37.6194 13.2578C37.6686 13.1551 37.7177 13.047 37.7625 12.9439C37.825 12.8102 37.883 12.6765 37.9411 12.5428C37.9527 12.5203 37.9618 12.4961 37.9681 12.4709C37.9847 12.4357 37.9996 12.3996 38.0128 12.3627C38.0236 12.3432 38.0325 12.3225 38.0395 12.301C38.0931 12.1673 38.1467 12.0335 38.1959 11.8998C38.2316 11.8181 38.263 11.7339 38.2898 11.6478C38.4059 11.3237 38.5117 10.9997 38.6067 10.6684C38.6692 10.8741 38.7228 11.0797 38.7764 11.2858C38.8134 11.4246 38.8482 11.5635 38.8792 11.7023C38.9103 11.8411 38.9462 11.9901 38.9732 12.1396C39.0087 12.3039 39.0399 12.4684 39.0667 12.6331C39.0981 12.7979 39.1251 12.9627 39.1473 13.1321C39.1695 13.3016 39.1965 13.4668 39.2143 13.6363C39.232 13.7751 39.2457 13.9195 39.259 14.0583C39.2634 14.1098 39.2679 14.1558 39.2723 14.2073C39.2856 14.3512 39.2949 14.5007 39.3037 14.6446V14.6497C39.3171 14.8039 39.3215 14.9533 39.3259 15.1075C39.3348 15.3204 39.3392 15.5244 39.3392 15.7351C39.3392 16.0332 39.3304 16.3368 39.3126 16.6353L39.1647 16.7588L27.6082 26.2667L25.6694 27.8614Z" fill="black"/>
</g>
</g>
<g style="mix-blend-mode:multiply" opacity="0.06">
<g style="mix-blend-mode:multiply" opacity="0.06">
<path d="M14.6896 6.35578C14.7698 6.2323 14.8504 6.10881 14.9395 5.98533C15.0202 5.86695 15.1048 5.74857 15.1899 5.6302C15.3641 5.39898 15.5382 5.16734 15.7257 4.94081C15.8152 4.82797 15.9106 4.7147 16.0027 4.60655H16.0071C16.0653 4.53284 16.1281 4.46411 16.195 4.40088H16.1994L16.5119 4.76623C16.5119 4.76112 16.5163 4.76623 16.5163 4.76623C16.5226 4.77755 16.5302 4.78786 16.5389 4.79688L25.6696 15.3059L23.8247 13.8041L15.0512 6.65044L14.6896 6.35578Z" fill="black"/>
</g>
</g>
<g style="mix-blend-mode:multiply" opacity="0.06">
<g style="mix-blend-mode:multiply" opacity="0.06">
<path d="M12.3598 12.1894C12.4204 11.8866 12.4863 11.5847 12.5628 11.2858C12.6164 11.0797 12.6701 10.8741 12.7325 10.6684C12.7729 10.8072 12.8132 10.946 12.8579 11.0797C12.889 11.1777 12.9204 11.2752 12.9559 11.368C12.9651 11.4106 12.9829 11.4502 12.9962 11.4915C13.0409 11.6303 13.0901 11.764 13.1441 11.8977C13.1622 11.9539 13.1831 12.009 13.2066 12.0625C13.2113 12.0809 13.2188 12.0982 13.2288 12.1136C13.2331 12.1397 13.2423 12.1644 13.2558 12.186C13.9335 13.8734 14.8634 15.4107 16.0029 16.7277H16.0074L25.6698 27.8593L23.7532 26.2799L12.331 16.8874L12.0318 16.6404L12.0274 16.6353C12.0092 16.3372 12.0004 16.0336 12.0004 15.7351C12.0004 15.6116 12.0096 15.4882 12.0122 15.3647C12.0122 15.2795 12.0174 15.1944 12.0203 15.1062C12.0307 14.8081 12.0477 14.5143 12.0728 14.2184C12.0851 14.0719 12.098 13.9259 12.1139 13.7798C12.1309 13.6257 12.1475 13.4715 12.1686 13.3178C12.2056 13.0534 12.2463 12.7902 12.2936 12.5275C12.3139 12.4164 12.3369 12.3039 12.3598 12.1894Z" fill="black"/>
</g>
</g>
<g style="mix-blend-mode:multiply" opacity="0.14">
<g style="mix-blend-mode:multiply" opacity="0.14">
<path d="M16.4829 4.72614L25.6695 15.3046L34.7717 4.82961C34.0754 5.77661 33.3465 6.68061 32.6318 7.6059C31.9073 8.51544 31.1785 9.42497 30.4404 10.3179C29.7068 11.2219 28.9543 12.1042 28.2114 12.992L25.9498 15.6286L25.6695 15.9569L25.3892 15.6286L23.1087 12.9652C22.3566 12.0667 21.5996 11.1789 20.8567 10.2698C20.1138 9.36068 19.3754 8.45071 18.6417 7.53096C17.9269 6.59886 17.1885 5.68379 16.4829 4.72614Z" fill="black"/>
</g>
</g>
<g style="mix-blend-mode:multiply" opacity="0.14">
<g style="mix-blend-mode:multiply" opacity="0.14">
<path d="M13.2073 12.071C13.8881 13.8062 14.8364 15.3849 16.0062 16.7307L25.6694 27.8631L35.337 16.7307C36.6224 15.2541 37.6378 13.4958 38.323 11.5596C37.79 13.3045 36.9821 14.9213 35.9398 16.3287C35.6783 16.6839 35.3932 17.0173 35.1222 17.3507L34.3046 18.3513L32.6457 20.3369C30.4403 22.9769 28.1972 25.5884 25.9497 28.1872L25.6694 28.5099L25.3891 28.1872L22.1135 24.3779C21.0341 23.097 19.9407 21.8272 18.8705 20.5306L17.2571 18.5975L16.458 17.6236C16.1962 17.2953 15.9208 16.9726 15.6589 16.6443C14.6108 15.3009 13.7804 13.752 13.2073 12.071Z" fill="black"/>
</g>
</g>
<g style="mix-blend-mode:screen" opacity="0.3">
<g style="mix-blend-mode:screen" opacity="0.3">
<path d="M16.4829 4.72614C17.3146 5.53858 18.11 6.3868 18.9172 7.21203C19.7162 8.05684 20.509 8.90706 21.2957 9.76264C22.0855 10.6181 22.8565 11.4897 23.6368 12.3558L25.6706 14.6642L27.6796 12.3776C28.4562 11.5221 29.2172 10.6556 30.0022 9.81629C30.7825 8.96084 31.5675 8.12667 32.3618 7.2874C33.1654 6.46941 33.9519 5.63013 34.7728 4.82833L25.6706 15.3033L16.4829 4.72614Z" fill="white"/>
</g>
</g>
<g style="mix-blend-mode:screen" opacity="0.3">
<g style="mix-blend-mode:screen" opacity="0.3">
<path d="M13.2073 12.071C13.9093 13.6532 14.8311 15.0926 15.9363 16.3326C17.0575 17.5593 18.1919 18.7861 19.305 20.029C20.4266 21.2664 21.5293 22.52 22.6416 23.7685L25.6694 27.2227C27.8326 24.7368 30.0116 22.2725 32.2064 19.8298L33.9307 17.9196C34.5053 17.2902 35.1033 16.666 35.6502 16.0255C36.7527 14.7204 37.6563 13.2106 38.323 11.5596C37.6378 13.4958 36.6224 15.2541 35.337 16.7307L25.6694 27.8631L16.0062 16.7307C14.8364 15.3849 13.8881 13.8062 13.2073 12.071Z" fill="white"/>
</g>
</g>
<g style="mix-blend-mode:screen" opacity="0.5">
<g style="mix-blend-mode:screen" opacity="0.5">
<path d="M25.6827 37.9796C25.7989 37.8148 26.7817 36.4568 28.2915 34.5641C29.091 33.5456 30.038 32.3831 31.0649 31.1431C31.5826 30.5312 32.1055 29.8883 32.655 29.2504C33.2045 28.6125 33.7644 27.9593 34.3168 27.3113C34.5938 26.9923 34.893 26.6679 35.1522 26.3596C35.438 26.0304 35.6795 25.7115 35.9206 25.3802C36.3979 24.7273 36.8282 24.0307 37.2071 23.2971C37.8854 21.9908 38.4054 20.5838 38.7528 19.1152C38.9136 18.4671 39.0071 17.8548 39.0966 17.3149C39.1236 17.119 39.1458 16.9342 39.1636 16.7613C39.1993 16.4423 39.2262 16.1541 39.2442 15.8969C39.2708 15.5111 39.2753 15.1871 39.2886 14.9763C39.2978 14.7911 39.3022 14.6783 39.3022 14.6523C39.3155 14.8064 39.32 14.9559 39.3244 15.11C39.3333 15.3229 39.3378 15.5269 39.3378 15.7377C39.3378 16.0357 39.3289 16.3394 39.3111 16.6378C39.1297 20.497 37.7133 24.142 35.3352 26.8693L25.6827 37.9796Z" fill="white"/>
</g>
</g>
<g style="mix-blend-mode:multiply" opacity="0.2">
<g style="mix-blend-mode:multiply" opacity="0.2">
<path d="M12.3598 12.1894C12.4205 11.8866 12.4863 11.5847 12.5628 11.2858C12.6164 11.0797 12.6701 10.874 12.7326 10.6684C13.1844 9.12061 13.8448 7.66429 14.6894 6.35275C14.7697 6.22926 14.8503 6.10577 14.9394 5.98229C15.02 5.86391 15.1047 5.74554 15.1898 5.62716C15.3639 5.39595 15.5381 5.1643 15.7256 4.93777C15.8151 4.82493 15.9105 4.71167 16.0025 4.60351H16.007C16.0652 4.5298 16.128 4.46108 16.1948 4.39784H16.1993C18.4351 1.91778 21.3383 0.389422 24.4299 0.0649155C27.5215 -0.259591 30.6169 0.639134 33.2053 2.61284C33.1472 2.57707 33.0533 2.51532 32.9372 2.43825C32.6961 2.28368 32.3389 2.07802 31.8785 1.82594C30.6088 1.15863 29.2598 0.713008 27.8759 0.503786C25.9409 0.205061 23.9729 0.379173 22.1003 1.01477C21.0542 1.37387 20.0482 1.87277 19.1028 2.50127C18.1668 3.13169 17.3 3.88939 16.521 4.75808C16.521 4.75808 16.5162 4.75297 16.5162 4.75808V4.76319C16.5162 4.76319 16.5117 4.75808 16.5117 4.76319C16.4807 4.79385 16.4537 4.83004 16.4226 4.8607C15.925 5.41281 15.4664 6.00971 15.0511 6.6457C14.7936 7.03954 14.5535 7.44815 14.3319 7.86991C13.761 8.94292 13.305 10.0916 12.974 11.2909C12.966 11.3159 12.96 11.3417 12.9559 11.368H12.9515V11.3731C12.6571 12.4718 12.4625 13.6027 12.3709 14.7476C12.3157 15.459 12.3022 16.1739 12.3306 16.8873C12.3443 17.242 12.3709 17.5921 12.4023 17.9263C12.5474 19.5254 12.9012 21.0902 13.4518 22.5677C13.6663 23.0978 13.8271 23.5194 13.9613 23.7919C14.0416 23.9669 14.0996 24.0955 14.1311 24.1623C12.8808 21.9054 12.1576 19.3151 12.0314 16.6421L12.027 16.637C12.0089 16.3389 12 16.0353 12 15.7368C12 15.6133 12.0092 15.4898 12.0118 15.3663C12.0118 15.2812 12.017 15.196 12.02 15.1079C12.0303 14.8098 12.0473 14.516 12.0725 14.2201C12.0847 14.0736 12.0976 13.9275 12.1135 13.7815C12.1305 13.6273 12.1472 13.4732 12.1683 13.3195C12.2052 13.055 12.2459 12.7919 12.2932 12.5292C12.3139 12.4163 12.3369 12.3039 12.3598 12.1894Z" fill="black"/>
</g>
</g>
</g>
<defs>
<filter id="filter0_d" x="8" y="0" width="35.3421" height="46" filterUnits="userSpaceOnUse" color-interpolation-filters="sRGB">
<feFlood flood-opacity="0" result="BackgroundImageFix"/>
<feColorMatrix in="SourceAlpha" type="matrix" values="0 0 0 0 0 0 0 0 0 0 0 0 0 0 0 0 0 0 127 0"/>
<feOffset dy="4"/>
<feGaussianBlur stdDeviation="2"/>
<feColorMatrix type="matrix" values="0 0 0 0 0 0 0 0 0 0 0 0 0 0 0 0 0 0 0.25 0"/>
<feBlend mode="normal" in2="BackgroundImageFix" result="effect1_dropShadow"/>
<feBlend mode="normal" in="SourceGraphic" in2="effect1_dropShadow" result="shape"/>
</filter>
<linearGradient id="paint0_linear" x1="-393.971" y1="373.995" x2="-393.971" y2="394.272" gradientUnits="userSpaceOnUse">
<stop stop-color="#FECB7A"/>
<stop offset="0.247" stop-color="#355881"/>
<stop offset="0.75" stop-color="#1F324E"/>
<stop offset="1" stop-color="#131D32"/>
</linearGradient>
<linearGradient id="paint1_linear" x1="-393.916" y1="396.697" x2="-393.916" y2="410.851" gradientUnits="userSpaceOnUse">
<stop stop-color="#E77E5F"/>
<stop offset="0.017" stop-color="#009BBC"/>
<stop offset="0.19" stop-color="#00BAD4"/>
<stop offset="0.371" stop-color="#00D3E7"/>
<stop offset="0.56" stop-color="#00E5F4"/>
<stop offset="0.762" stop-color="#00EFFC"/>
<stop offset="1" stop-color="#00F3FF"/>
</linearGradient>
<linearGradient id="paint2_linear" x1="-393.901" y1="384.406" x2="-393.901" y2="401.558" gradientUnits="userSpaceOnUse">
<stop stop-color="#FCA965"/>
<stop offset="0.04" stop-color="#5D3283"/>
<stop offset="0.35" stop-color="#54618E"/>
<stop offset="0.625" stop-color="#4E8396"/>
<stop offset="0.851" stop-color="#4A989B"/>
<stop offset="1" stop-color="#49A09D"/>
</linearGradient>
</defs>
</svg>
